<svg xmlns="http://www.w3.org/2000/svg" xmlns:xlink="http://www.w3.org/1999/xlink" width="224" zoomAndPan="magnify" viewBox="0 0 168 31.5" height="42" preserveAspectRatio="xMidYMid meet" version="1.0"><defs><g/><clipPath id="00c2e29d12"><path d="M 1.3125 0 L 34 0 L 34 21 L 1.3125 21 Z M 1.3125 0 " clip-rule="nonzero"/></clipPath><clipPath id="d9754aca83"><path d="M 49.054688 0 L 121.328125 0 L 121.328125 31.007812 L 49.054688 31.007812 Z M 49.054688 0 " clip-rule="nonzero"/></clipPath><clipPath id="c3e1766dbb"><path d="M 121.28125 0.8125 C 121.355469 24.066406 118.625 30.046875 115.15625 34.550781 C 111.613281 39.054688 106.445312 43.117188 101.203125 45.476562 C 96.035156 47.839844 89.535156 49.023438 83.851562 48.652344 C 78.09375 48.285156 71.890625 46.363281 66.945312 43.410156 C 62.074219 40.457031 57.421875 35.804688 54.46875 30.933594 C 51.515625 25.988281 49.597656 19.710938 49.226562 14.027344 C 48.859375 8.34375 50.039062 1.847656 52.402344 -3.320312 C 54.765625 -8.5625 58.824219 -13.730469 63.328125 -17.277344 C 67.832031 -20.746094 73.8125 -23.476562 79.421875 -24.511719 C 85.035156 -25.542969 91.605469 -25.101562 97.066406 -23.402344 C 102.53125 -21.707031 112.203125 -14.25 112.203125 -14.25 " clip-rule="nonzero"/></clipPath><clipPath id="bd96e988d1"><path d="M 97.636719 0 L 166.6875 0 L 166.6875 31.007812 L 97.636719 31.007812 Z M 97.636719 0 " clip-rule="nonzero"/></clipPath><clipPath id="51a46c1ed4"><path d="M 134.941406 -14.324219 C 150.445312 -11.148438 154.136719 -9.15625 157.3125 -6.792969 C 160.410156 -4.429688 163.292969 -1.402344 165.507812 1.847656 C 167.722656 5.09375 169.492188 8.933594 170.527344 12.699219 C 171.558594 16.539062 172.003906 20.671875 171.78125 24.585938 C 171.558594 28.496094 170.675781 32.632812 169.269531 36.25 C 167.792969 39.941406 165.652344 43.484375 163.070312 46.511719 C 160.558594 49.464844 157.3125 52.195312 153.988281 54.261719 C 150.59375 56.257812 146.679688 57.808594 142.839844 58.621094 C 139 59.503906 134.867188 59.726562 130.953125 59.285156 C 127.042969 58.839844 122.980469 57.734375 119.4375 56.109375 C 115.894531 54.484375 112.421875 52.121094 109.542969 49.390625 C 106.664062 46.660156 104.15625 43.335938 102.308594 39.867188 C 100.464844 36.398438 99.132812 32.410156 98.46875 28.570312 C 97.878906 24.660156 97.878906 20.523438 98.46875 16.613281 C 99.132812 12.699219 100.464844 8.785156 102.308594 5.316406 C 104.15625 1.847656 106.664062 -1.550781 109.542969 -4.207031 C 112.421875 -6.941406 115.894531 -9.300781 119.4375 -10.925781 C 122.980469 -12.550781 127.042969 -13.65625 130.953125 -14.101562 C 134.867188 -14.542969 139.074219 -14.324219 142.914062 -13.4375 C 146.753906 -12.625 150.59375 -11.074219 153.988281 -9.007812 C 157.386719 -7.011719 160.558594 -4.28125 163.070312 -1.328125 C 165.652344 1.699219 167.792969 5.316406 169.269531 8.933594 C 170.675781 12.550781 171.632812 16.683594 171.78125 20.597656 C 172.003906 24.511719 171.558594 28.71875 170.527344 32.484375 C 169.492188 36.25 167.722656 40.089844 165.507812 43.335938 C 163.292969 46.585938 160.410156 49.613281 157.3125 51.976562 C 154.136719 54.335938 150.445312 56.332031 146.753906 57.585938 C 142.988281 58.839844 138.558594 59.429688 134.941406 59.503906 C 131.765625 59.578125 128.960938 59.136719 126.082031 58.472656 C 123.203125 57.808594 120.398438 56.699219 117.738281 55.371094 C 115.15625 53.96875 112.644531 52.269531 110.429688 50.351562 C 108.214844 48.355469 106.148438 46.070312 104.523438 43.707031 C 102.824219 41.269531 101.347656 38.539062 100.316406 35.804688 C 99.28125 33.074219 98.542969 30.121094 98.175781 27.167969 C 97.804688 24.289062 97.804688 21.1875 98.101562 18.308594 C 98.46875 15.355469 99.207031 12.402344 100.242188 9.671875 C 101.277344 6.867188 102.679688 4.132812 104.300781 1.773438 C 106 -0.664062 107.992188 -2.953125 110.207031 -4.945312 C 112.421875 -6.941406 114.933594 -8.636719 117.519531 -10.039062 C 120.101562 -11.441406 122.980469 -12.476562 125.785156 -13.214844 C 128.664062 -13.953125 134.644531 -14.324219 134.644531 -14.324219 " clip-rule="nonzero"/></clipPath></defs><path fill="#000000" d="M 58.652344 23.847656 C 57.886719 23.847656 57.191406 23.683594 56.570312 23.359375 C 55.949219 23.035156 55.457031 22.589844 55.085938 22.03125 C 54.71875 21.46875 54.519531 20.839844 54.488281 20.148438 L 54.488281 16.339844 C 54.519531 15.644531 54.71875 15.023438 55.085938 14.476562 C 55.472656 13.917969 55.972656 13.480469 56.59375 13.171875 C 57.214844 12.859375 57.898438 12.707031 58.652344 12.707031 C 59.640625 12.707031 60.527344 12.949219 61.3125 13.4375 C 62.09375 13.925781 62.707031 14.589844 63.148438 15.429688 C 63.605469 16.273438 63.835938 17.222656 63.835938 18.289062 C 63.835938 19.335938 63.605469 20.28125 63.148438 21.121094 C 62.707031 21.964844 62.09375 22.628906 61.3125 23.117188 C 60.527344 23.601562 59.640625 23.847656 58.652344 23.847656 Z M 58.164062 21.167969 C 58.695312 21.167969 59.164062 21.046875 59.5625 20.8125 C 59.972656 20.5625 60.292969 20.222656 60.511719 19.792969 C 60.75 19.351562 60.867188 18.839844 60.867188 18.265625 C 60.867188 17.703125 60.75 17.210938 60.511719 16.78125 C 60.292969 16.339844 59.972656 16 59.5625 15.761719 C 59.148438 15.511719 58.675781 15.386719 58.144531 15.386719 C 57.613281 15.386719 57.140625 15.511719 56.726562 15.761719 C 56.328125 16 56.011719 16.339844 55.773438 16.78125 C 55.550781 17.210938 55.441406 17.703125 55.441406 18.265625 C 55.441406 18.839844 55.550781 19.351562 55.773438 19.792969 C 56.011719 20.222656 56.335938 20.5625 56.75 20.8125 C 57.160156 21.046875 57.632812 21.167969 58.164062 21.167969 Z M 52.71875 23.625 L 52.71875 7.613281 L 55.617188 7.613281 L 55.617188 15.5625 L 55.132812 18.132812 L 55.597656 20.746094 L 55.597656 23.625 Z M 70.210938 28.363281 C 69.074219 28.363281 68.070312 28.15625 67.199219 27.746094 C 66.328125 27.347656 65.632812 26.777344 65.117188 26.039062 L 66.957031 24.199219 C 67.371094 24.6875 67.828125 25.058594 68.328125 25.308594 C 68.847656 25.574219 69.464844 25.707031 70.191406 25.707031 C 71.089844 25.707031 71.800781 25.476562 72.316406 25.019531 C 72.847656 24.5625 73.113281 23.925781 73.113281 23.117188 L 73.113281 20.4375 L 73.601562 18.089844 L 73.136719 15.738281 L 73.136719 12.925781 L 76.015625 12.925781 L 76.015625 23.070312 C 76.015625 24.132812 75.765625 25.058594 75.261719 25.839844 C 74.773438 26.636719 74.09375 27.257812 73.222656 27.699219 C 72.351562 28.144531 71.347656 28.363281 70.210938 28.363281 Z M 70.078125 23.335938 C 69.121094 23.335938 68.253906 23.109375 67.488281 22.652344 C 66.71875 22.179688 66.113281 21.535156 65.671875 20.722656 C 65.242188 19.910156 65.027344 19.003906 65.027344 18 C 65.027344 16.996094 65.242188 16.09375 65.671875 15.296875 C 66.113281 14.5 66.71875 13.871094 67.488281 13.414062 C 68.253906 12.941406 69.121094 12.707031 70.078125 12.707031 C 70.875 12.707031 71.578125 12.859375 72.183594 13.171875 C 72.804688 13.480469 73.289062 13.910156 73.644531 14.457031 C 74 14.988281 74.191406 15.613281 74.222656 16.339844 L 74.222656 19.703125 C 74.191406 20.414062 73.992188 21.046875 73.621094 21.609375 C 73.269531 22.15625 72.78125 22.585938 72.160156 22.894531 C 71.554688 23.1875 70.863281 23.335938 70.078125 23.335938 Z M 70.65625 20.703125 C 71.1875 20.703125 71.644531 20.589844 72.027344 20.371094 C 72.425781 20.132812 72.738281 19.816406 72.957031 19.417969 C 73.179688 19.003906 73.289062 18.539062 73.289062 18.019531 C 73.289062 17.488281 73.179688 17.023438 72.957031 16.625 C 72.738281 16.226562 72.425781 15.917969 72.027344 15.695312 C 71.644531 15.460938 71.1875 15.339844 70.65625 15.339844 C 70.125 15.339844 69.660156 15.460938 69.257812 15.695312 C 68.859375 15.917969 68.550781 16.234375 68.328125 16.648438 C 68.109375 17.046875 67.996094 17.503906 67.996094 18.019531 C 67.996094 18.523438 68.109375 18.980469 68.328125 19.394531 C 68.550781 19.792969 68.859375 20.109375 69.257812 20.347656 C 69.660156 20.582031 70.125 20.703125 70.65625 20.703125 Z M 80.558594 23.847656 C 80.027344 23.847656 79.589844 23.667969 79.25 23.316406 C 78.910156 22.960938 78.742188 22.523438 78.742188 22.007812 C 78.742188 21.492188 78.910156 21.054688 79.25 20.703125 C 79.589844 20.347656 80.027344 20.167969 80.558594 20.167969 C 81.074219 20.167969 81.503906 20.347656 81.84375 20.703125 C 82.179688 21.054688 82.351562 21.492188 82.351562 22.007812 C 82.351562 22.523438 82.179688 22.960938 81.84375 23.316406 C 81.503906 23.667969 81.074219 23.847656 80.558594 23.847656 Z M 85.097656 23.625 L 85.097656 12.925781 L 87.996094 12.925781 L 87.996094 23.625 Z M 87.996094 17.710938 L 86.867188 16.957031 C 87 15.644531 87.386719 14.609375 88.019531 13.859375 C 88.65625 13.089844 89.570312 12.707031 90.765625 12.707031 C 91.28125 12.707031 91.75 12.792969 92.160156 12.972656 C 92.574219 13.132812 92.953125 13.40625 93.292969 13.792969 L 91.476562 15.875 C 91.3125 15.695312 91.113281 15.5625 90.878906 15.472656 C 90.65625 15.386719 90.398438 15.339844 90.101562 15.339844 C 89.480469 15.339844 88.972656 15.539062 88.574219 15.941406 C 88.191406 16.324219 87.996094 16.914062 87.996094 17.710938 Z M 99.125 23.847656 C 98 23.847656 97.003906 23.609375 96.132812 23.136719 C 95.261719 22.652344 94.570312 21.984375 94.050781 21.144531 C 93.550781 20.304688 93.296875 19.34375 93.296875 18.265625 C 93.296875 17.203125 93.542969 16.257812 94.03125 15.429688 C 94.53125 14.589844 95.210938 13.925781 96.066406 13.4375 C 96.921875 12.933594 97.875 12.683594 98.925781 12.683594 C 99.957031 12.683594 100.867188 12.921875 101.648438 13.390625 C 102.445312 13.851562 103.066406 14.484375 103.507812 15.296875 C 103.96875 16.09375 104.195312 17.003906 104.195312 18.019531 C 104.195312 18.214844 104.179688 18.414062 104.152344 18.621094 C 104.136719 18.8125 104.101562 19.03125 104.039062 19.285156 L 95.046875 19.304688 L 95.046875 17.136719 L 102.691406 17.113281 L 101.515625 18.019531 C 101.484375 17.386719 101.367188 16.855469 101.160156 16.425781 C 100.96875 16 100.679688 15.671875 100.296875 15.453125 C 99.929688 15.214844 99.46875 15.097656 98.925781 15.097656 C 98.347656 15.097656 97.847656 15.230469 97.417969 15.496094 C 96.988281 15.746094 96.65625 16.109375 96.421875 16.582031 C 96.199219 17.039062 96.089844 17.585938 96.089844 18.222656 C 96.089844 18.871094 96.207031 19.4375 96.445312 19.925781 C 96.695312 20.398438 97.050781 20.769531 97.507812 21.035156 C 97.964844 21.285156 98.496094 21.410156 99.101562 21.410156 C 99.648438 21.410156 100.140625 21.320312 100.585938 21.144531 C 101.027344 20.953125 101.414062 20.671875 101.738281 20.304688 L 103.441406 22.007812 C 102.925781 22.613281 102.289062 23.070312 101.539062 23.382812 C 100.800781 23.691406 99.996094 23.847656 99.125 23.847656 Z M 105.992188 23.625 L 105.992188 12.925781 L 108.890625 12.925781 L 108.890625 23.625 Z M 112.96875 23.625 L 112.96875 17.3125 C 112.96875 16.691406 112.769531 16.210938 112.371094 15.875 C 111.984375 15.519531 111.503906 15.339844 110.929688 15.339844 C 110.546875 15.339844 110.199219 15.421875 109.886719 15.585938 C 109.578125 15.734375 109.335938 15.953125 109.15625 16.25 C 108.980469 16.542969 108.890625 16.898438 108.890625 17.3125 L 107.761719 16.757812 C 107.761719 15.933594 107.941406 15.214844 108.292969 14.609375 C 108.664062 14.003906 109.15625 13.539062 109.777344 13.214844 C 110.398438 12.875 111.097656 12.707031 111.882812 12.707031 C 112.621094 12.707031 113.292969 12.875 113.898438 13.214844 C 114.503906 13.539062 114.984375 14.003906 115.335938 14.609375 C 115.691406 15.203125 115.867188 15.917969 115.867188 16.757812 L 115.867188 23.625 Z M 119.945312 23.625 L 119.945312 17.3125 C 119.945312 16.691406 119.746094 16.210938 119.347656 15.875 C 118.960938 15.519531 118.480469 15.339844 117.90625 15.339844 C 117.539062 15.339844 117.191406 15.421875 116.867188 15.585938 C 116.554688 15.734375 116.3125 15.953125 116.132812 16.25 C 115.957031 16.542969 115.867188 16.898438 115.867188 17.3125 L 114.207031 16.914062 C 114.265625 16.058594 114.496094 15.320312 114.894531 14.699219 C 115.292969 14.0625 115.816406 13.578125 116.464844 13.238281 C 117.117188 12.882812 117.839844 12.707031 118.636719 12.707031 C 119.433594 12.707031 120.152344 12.875 120.785156 13.214844 C 121.421875 13.539062 121.921875 14.011719 122.292969 14.632812 C 122.660156 15.253906 122.84375 15.992188 122.84375 16.847656 L 122.84375 23.625 Z M 130.222656 23.847656 C 129.148438 23.847656 128.171875 23.601562 127.300781 23.117188 C 126.445312 22.613281 125.757812 21.941406 125.242188 21.101562 C 124.738281 20.242188 124.488281 19.292969 124.488281 18.242188 C 124.488281 17.195312 124.738281 16.257812 125.242188 15.429688 C 125.742188 14.589844 126.429688 13.925781 127.300781 13.4375 C 128.171875 12.933594 129.140625 12.683594 130.203125 12.683594 C 131.296875 12.683594 132.269531 12.933594 133.125 13.4375 C 133.996094 13.925781 134.683594 14.589844 135.1875 15.429688 C 135.6875 16.257812 135.9375 17.195312 135.9375 18.242188 C 135.9375 19.292969 135.6875 20.242188 135.1875 21.101562 C 134.683594 21.941406 133.996094 22.613281 133.125 23.117188 C 132.269531 23.601562 131.300781 23.847656 130.222656 23.847656 Z M 130.203125 21.144531 C 130.75 21.144531 131.230469 21.027344 131.640625 20.789062 C 132.070312 20.539062 132.394531 20.199219 132.617188 19.769531 C 132.851562 19.328125 132.972656 18.828125 132.972656 18.265625 C 132.972656 17.703125 132.851562 17.210938 132.617188 16.78125 C 132.378906 16.351562 132.054688 16.019531 131.640625 15.785156 C 131.230469 15.535156 130.75 15.40625 130.203125 15.40625 C 129.671875 15.40625 129.199219 15.535156 128.785156 15.785156 C 128.371094 16.019531 128.046875 16.351562 127.808594 16.78125 C 127.574219 17.210938 127.457031 17.703125 127.457031 18.265625 C 127.457031 18.828125 127.574219 19.328125 127.808594 19.769531 C 128.046875 20.199219 128.371094 20.539062 128.785156 20.789062 C 129.199219 21.027344 129.671875 21.144531 130.203125 21.144531 Z M 140.960938 23.625 L 136.242188 12.925781 L 139.429688 12.925781 L 142.820312 21.742188 L 141.246094 21.742188 L 144.660156 12.925781 L 147.738281 12.925781 L 143.042969 23.625 Z M 153.226562 23.847656 C 152.25 23.847656 151.371094 23.601562 150.589844 23.117188 C 149.808594 22.628906 149.195312 21.964844 148.75 21.121094 C 148.308594 20.28125 148.085938 19.335938 148.085938 18.289062 C 148.085938 17.222656 148.308594 16.273438 148.75 15.429688 C 149.195312 14.589844 149.808594 13.925781 150.589844 13.4375 C 151.371094 12.949219 152.25 12.707031 153.226562 12.707031 C 153.992188 12.707031 154.679688 12.859375 155.285156 13.171875 C 155.890625 13.480469 156.371094 13.917969 156.726562 14.476562 C 157.09375 15.023438 157.292969 15.644531 157.324219 16.339844 L 157.324219 20.191406 C 157.292969 20.902344 157.09375 21.527344 156.726562 22.074219 C 156.371094 22.621094 155.890625 23.054688 155.285156 23.382812 C 154.679688 23.691406 153.992188 23.847656 153.226562 23.847656 Z M 153.757812 21.167969 C 154.570312 21.167969 155.226562 20.902344 155.726562 20.371094 C 156.230469 19.824219 156.480469 19.121094 156.480469 18.265625 C 156.480469 17.703125 156.363281 17.210938 156.128906 16.78125 C 155.90625 16.339844 155.589844 16 155.175781 15.761719 C 154.777344 15.511719 154.304688 15.386719 153.757812 15.386719 C 153.226562 15.386719 152.753906 15.511719 152.339844 15.761719 C 151.941406 16 151.625 16.339844 151.386719 16.78125 C 151.164062 17.210938 151.054688 17.703125 151.054688 18.265625 C 151.054688 18.839844 151.164062 19.351562 151.386719 19.792969 C 151.625 20.222656 151.941406 20.5625 152.339844 20.8125 C 152.753906 21.046875 153.226562 21.167969 153.757812 21.167969 Z M 156.328125 23.625 L 156.328125 20.746094 L 156.792969 18.132812 L 156.328125 15.5625 L 156.328125 12.925781 L 159.207031 12.925781 L 159.207031 23.625 Z M 161.773438 23.625 L 161.773438 7.613281 L 164.671875 7.613281 L 164.671875 23.625 Z M 161.773438 23.625 " fill-opacity="1" fill-rule="nonzero"/><g clip-path="url(#00c2e29d12)"><path fill="#007aff" d="M 15.140625 0 L 33.945312 0 L 20.121094 20.492188 L 1.3125 20.492188 Z M 15.140625 0 " fill-opacity="1" fill-rule="nonzero"/></g><path fill="#312ecb" d="M 15.960938 22.394531 L 10.605469 30.332031 L 30.304688 30.332031 L 44.132812 9.835938 L 29.59375 9.835938 L 21.121094 22.394531 Z M 15.960938 22.394531 " fill-opacity="1" fill-rule="nonzero"/><g clip-path="url(#d9754aca83)"><g clip-path="url(#c3e1766dbb)"><path fill="#ffffff" d="M 46.273438 -27.464844 L 125.34375 -27.464844 L 125.34375 51.605469 L 46.273438 51.605469 Z M 46.273438 -27.464844 " fill-opacity="1" fill-rule="nonzero"/></g></g><g clip-path="url(#bd96e988d1)"><g clip-path="url(#51a46c1ed4)"><path fill="#ffffff" d="M 95.148438 -17.277344 L 174.808594 -17.277344 L 174.808594 62.382812 L 95.148438 62.382812 Z M 95.148438 -17.277344 " fill-opacity="1" fill-rule="nonzero"/></g></g><g fill="#000000" fill-opacity="1"><g transform="translate(48.692851, 21.410156)"><g><path d="M 1.421875 -19.484375 L 7.46875 -19.484375 C 9.289062 -19.484375 10.742188 -19.09375 11.828125 -18.3125 C 12.921875 -17.539062 13.46875 -16.28125 13.46875 -14.53125 C 13.46875 -12.570312 12.65625 -11.175781 11.03125 -10.34375 C 13.800781 -9.851562 15.1875 -8.21875 15.1875 -5.4375 C 15.1875 -3.800781 14.617188 -2.484375 13.484375 -1.484375 C 12.347656 -0.492188 10.789062 0 8.8125 0 L 1.421875 0 Z M 5.859375 -11.859375 L 6.21875 -11.859375 C 7.207031 -11.859375 7.945312 -12.03125 8.4375 -12.375 C 8.925781 -12.726562 9.171875 -13.296875 9.171875 -14.078125 C 9.171875 -15.398438 8.1875 -16.0625 6.21875 -16.0625 L 5.859375 -16.0625 Z M 5.859375 -3.421875 L 7.25 -3.421875 C 9.425781 -3.421875 10.515625 -4.144531 10.515625 -5.59375 C 10.515625 -6.46875 10.242188 -7.09375 9.703125 -7.46875 C 9.160156 -7.84375 8.34375 -8.03125 7.25 -8.03125 L 5.859375 -8.03125 Z M 5.859375 -3.421875 "/></g></g></g><g fill="#000000" fill-opacity="1"><g transform="translate(64.427131, 21.410156)"><g><path d="M 0.875 2.984375 L 4.296875 1.296875 C 4.929688 2.335938 6.023438 2.859375 7.578125 2.859375 C 8.304688 2.859375 8.976562 2.625 9.59375 2.15625 C 10.21875 1.695312 10.53125 0.988281 10.53125 0.03125 L 10.53125 -0.875 C 9.789062 -0.0507812 8.46875 0.359375 6.5625 0.359375 C 4.820312 0.359375 3.382812 -0.257812 2.25 -1.5 C 1.113281 -2.738281 0.546875 -4.253906 0.546875 -6.046875 C 0.546875 -7.835938 1.113281 -9.351562 2.25 -10.59375 C 3.382812 -11.84375 4.820312 -12.46875 6.5625 -12.46875 C 8.125 -12.46875 9.425781 -11.988281 10.46875 -11.03125 L 10.53125 -11.03125 L 10.53125 -12.125 L 14.71875 -12.125 L 14.71875 0.328125 C 14.71875 2.296875 14.0625 3.816406 12.75 4.890625 C 11.445312 5.960938 9.722656 6.5 7.578125 6.5 C 4.117188 6.5 1.882812 5.328125 0.875 2.984375 Z M 5.796875 -8.09375 C 5.253906 -7.5625 4.984375 -6.878906 4.984375 -6.046875 C 4.984375 -5.210938 5.242188 -4.53125 5.765625 -4 C 6.285156 -3.476562 6.96875 -3.21875 7.8125 -3.21875 C 8.632812 -3.21875 9.304688 -3.484375 9.828125 -4.015625 C 10.359375 -4.546875 10.625 -5.222656 10.625 -6.046875 C 10.625 -6.878906 10.351562 -7.5625 9.8125 -8.09375 C 9.269531 -8.632812 8.601562 -8.90625 7.8125 -8.90625 C 7.007812 -8.90625 6.335938 -8.632812 5.796875 -8.09375 Z M 5.796875 -8.09375 "/></g></g></g><g fill="#000000" fill-opacity="1"><g transform="translate(80.563042, 21.410156)"><g/></g></g><g fill="#000000" fill-opacity="1"><g transform="translate(87.012684, 21.410156)"><g><path d="M 19.046875 -10.921875 L 19.046875 -6.6875 C 18.535156 -4.375 17.429688 -2.617188 15.734375 -1.421875 C 14.035156 -0.234375 12.140625 0.359375 10.046875 0.359375 C 7.410156 0.359375 5.164062 -0.625 3.3125 -2.59375 C 1.46875 -4.5625 0.546875 -6.941406 0.546875 -9.734375 C 0.546875 -12.566406 1.453125 -14.957031 3.265625 -16.90625 C 5.078125 -18.863281 7.335938 -19.84375 10.046875 -19.84375 C 13.210938 -19.84375 15.710938 -18.734375 17.546875 -16.515625 L 14.640625 -13.328125 C 13.609375 -14.992188 12.160156 -15.828125 10.296875 -15.828125 C 8.929688 -15.828125 7.765625 -15.234375 6.796875 -14.046875 C 5.828125 -12.859375 5.34375 -11.421875 5.34375 -9.734375 C 5.34375 -8.078125 5.828125 -6.660156 6.796875 -5.484375 C 7.765625 -4.316406 8.929688 -3.734375 10.296875 -3.734375 C 11.429688 -3.734375 12.421875 -4.070312 13.265625 -4.75 C 14.109375 -5.4375 14.53125 -6.347656 14.53125 -7.484375 L 10.046875 -7.484375 L 10.046875 -10.921875 Z M 19.046875 -10.921875 "/></g></g></g><g fill="#000000" fill-opacity="1"><g transform="translate(106.597853, 21.410156)"><g><path d="M 2.5625 -1.4375 C 1.21875 -2.632812 0.546875 -4.171875 0.546875 -6.046875 C 0.546875 -7.921875 1.242188 -9.457031 2.640625 -10.65625 C 4.046875 -11.863281 5.78125 -12.46875 7.84375 -12.46875 C 9.875 -12.46875 11.585938 -11.859375 12.984375 -10.640625 C 14.378906 -9.429688 15.078125 -7.898438 15.078125 -6.046875 C 15.078125 -4.191406 14.394531 -2.660156 13.03125 -1.453125 C 11.664062 -0.242188 9.9375 0.359375 7.84375 0.359375 C 5.664062 0.359375 3.90625 -0.238281 2.5625 -1.4375 Z M 5.796875 -8.09375 C 5.253906 -7.5625 4.984375 -6.878906 4.984375 -6.046875 C 4.984375 -5.210938 5.242188 -4.53125 5.765625 -4 C 6.285156 -3.476562 6.96875 -3.21875 7.8125 -3.21875 C 8.632812 -3.21875 9.304688 -3.484375 9.828125 -4.015625 C 10.359375 -4.546875 10.625 -5.222656 10.625 -6.046875 C 10.625 -6.878906 10.351562 -7.5625 9.8125 -8.09375 C 9.269531 -8.632812 8.601562 -8.90625 7.8125 -8.90625 C 7.007812 -8.90625 6.335938 -8.632812 5.796875 -8.09375 Z M 5.796875 -8.09375 "/></g></g></g><g fill="#000000" fill-opacity="1"><g transform="translate(122.214006, 21.410156)"><g><path d="M 1.421875 0 L 1.421875 -12.125 L 5.59375 -12.125 L 5.59375 -10.84375 L 5.640625 -10.84375 C 6.734375 -11.925781 7.894531 -12.46875 9.125 -12.46875 C 9.71875 -12.46875 10.304688 -12.390625 10.890625 -12.234375 C 11.484375 -12.078125 12.050781 -11.832031 12.59375 -11.5 C 13.144531 -11.175781 13.585938 -10.707031 13.921875 -10.09375 C 14.265625 -9.488281 14.4375 -8.785156 14.4375 -7.984375 L 14.4375 0 L 10.25 0 L 10.25 -6.84375 C 10.25 -7.476562 10.046875 -8.03125 9.640625 -8.5 C 9.242188 -8.976562 8.722656 -9.21875 8.078125 -9.21875 C 7.453125 -9.21875 6.878906 -8.972656 6.359375 -8.484375 C 5.847656 -7.992188 5.59375 -7.445312 5.59375 -6.84375 L 5.59375 0 Z M 1.421875 0 "/></g></g></g><g fill="#000000" fill-opacity="1"><g transform="translate(137.830159, 21.410156)"><g><path d="M 13.671875 -5.484375 L 4.890625 -5.484375 C 4.890625 -4.628906 5.164062 -4 5.71875 -3.59375 C 6.269531 -3.1875 6.867188 -2.984375 7.515625 -2.984375 C 8.191406 -2.984375 8.722656 -3.070312 9.109375 -3.25 C 9.503906 -3.425781 9.957031 -3.785156 10.46875 -4.328125 L 13.484375 -2.8125 C 12.222656 -0.695312 10.128906 0.359375 7.203125 0.359375 C 5.378906 0.359375 3.8125 -0.265625 2.5 -1.515625 C 1.195312 -2.773438 0.546875 -4.285156 0.546875 -6.046875 C 0.546875 -7.804688 1.195312 -9.316406 2.5 -10.578125 C 3.8125 -11.835938 5.378906 -12.46875 7.203125 -12.46875 C 9.128906 -12.46875 10.691406 -11.910156 11.890625 -10.796875 C 13.097656 -9.691406 13.703125 -8.109375 13.703125 -6.046875 C 13.703125 -5.765625 13.691406 -5.578125 13.671875 -5.484375 Z M 5.015625 -7.796875 L 9.609375 -7.796875 C 9.515625 -8.421875 9.265625 -8.898438 8.859375 -9.234375 C 8.460938 -9.578125 7.953125 -9.75 7.328125 -9.75 C 6.628906 -9.75 6.078125 -9.566406 5.671875 -9.203125 C 5.265625 -8.847656 5.046875 -8.378906 5.015625 -7.796875 Z M 5.015625 -7.796875 "/></g></g></g></svg>